<svg xmlns="http://www.w3.org/2000/svg" viewBox="0 0 119.36 119.36">
  <title>Asset 5</title>
  <g id="b728a492-281a-498c-8757-25e057eccae6" data-name="Layer 2">
    <g id="a999ae80-eafc-417e-a643-c375beb1d5a7" data-name="Layer 1">
      <g>
        <g>
          <path d="M126.4,73h.07c0,.14,0,.27,0,.41A58.27,58.27,0,0,1,10,73.4c0-.14,0-.27,0-.41H31.82v.42a36.4,36.4,0,0,0,72.8,0V73Z" transform="translate(-8.53 -13.71)" fill="#231f20"/>
          <path d="M126.47,73H104.62a36.4,36.4,0,0,0-72.8,0H10a58.26,58.26,0,0,1,116.51,0Z" transform="translate(-8.53 -13.71)" fill="#231f20"/>
          <path d="M104.62,73v.42a36.4,36.4,0,0,1-72.8,0V73a36.4,36.4,0,0,1,72.8,0Z" transform="translate(-8.53 -13.71)" fill="#fff"/>
        </g>
        <g>
          <path d="M126.47,73c0,.14,0,.27,0,.41A58.27,58.27,0,0,1,10,73.4c0-.14,0-.27,0-.41a58.26,58.26,0,0,1,116.51,0Z" transform="translate(-8.53 -13.71)" fill="none" stroke="#231f20" stroke-miterlimit="10" stroke-width="2.83"/>
          <polyline points="94.48 59.28 96.09 59.28 117.87 59.28" fill="none" stroke="#231f20" stroke-miterlimit="10" stroke-width="2.83"/>
          <polyline points="23.29 59.28 1.43 59.28 1.39 59.28" fill="none" stroke="#231f20" stroke-miterlimit="10" stroke-width="2.83"/>
          <path d="M104.62,73v.42a36.4,36.4,0,0,1-72.8,0V73a36.4,36.4,0,0,1,72.8,0Z" transform="translate(-8.53 -13.71)" fill="none" stroke="#231f20" stroke-miterlimit="10" stroke-width="2.83"/>
        </g>
      </g>
      <g>
        <path d="M15.06,73.63A2.72,2.72,0,0,1,17.77,71c1.11.05,1.83.83,1.81,1.12a2,2,0,0,1,2.13-1.61A2.44,2.44,0,0,1,24,73.15l-.19,4.56-8.9-.37Zm3.51,1.88.08-1.9a.93.93,0,0,0-.89-1,1,1,0,0,0-1,.86l-.08,1.92Zm2.81-3.26a1,1,0,0,0-1,.9l-.1,2.43,1.86.08.1-2.46A.91.91,0,0,0,21.38,72.25Z" transform="translate(-8.53 -13.71)" fill="#fff"/>
        <path d="M24.2,62.09l-.88,3.16,1.59,1.16-.5,1.8-7.7-5.53.55-2,9.4-.57-.5,1.81Zm-1.74.15-2.89.26,2.34,1.72Z" transform="translate(-8.53 -13.71)" fill="#fff"/>
        <path d="M31.47,51l-1.1,2-3.66,0-.79,1.43,2.8,1.56-1,1.72L20,53.3l2-3.6a2.93,2.93,0,0,1,4-1.33,2.79,2.79,0,0,1,1.47,2.78Zm-5.94.53a1.12,1.12,0,0,0-.36-1.62,1.15,1.15,0,0,0-1.6.53l-1.12,2,2,1.09Z" transform="translate(-8.53 -13.71)" fill="#fff"/>
        <path d="M29.43,39.67a2.71,2.71,0,0,1,3.8-.26,1.9,1.9,0,0,1,.65,2,2,2,0,0,1,2.66.16,2.44,2.44,0,0,1,0,3.52l-3.11,3.34L26.9,42.38Zm1.44,3.71L32.17,42a.93.93,0,0,0-1.36-1.28l-1.3,1.4Zm4.26-.65a1,1,0,0,0-1.34,0l-1.66,1.79,1.36,1.26L35.17,44A.91.91,0,0,0,35.13,42.73Z" transform="translate(-8.53 -13.71)" fill="#fff"/>
        <path d="M41.17,30.16l1,1.48-3.68,2.48.89,1.31,3.07-2,1,1.48-3.08,2,1.11,1.64,3.68-2.48,1,1.48L40.86,41.1l-5-7.38Z" transform="translate(-8.53 -13.71)" fill="#fff"/>
        <path d="M54.65,31.91l.65,1.66-5.89,2.3-3.23-8.29L48,26.86l2.59,6.63Z" transform="translate(-8.53 -13.71)" fill="#fff"/>
        <path d="M64.28,30.06l.28,1.76-6.24,1L56.92,24l1.95-.31,1.12,7Z" transform="translate(-8.53 -13.71)" fill="#fff"/>
        <path d="M69.61,30.93l5,.36-.07.86-5.91-.42.63-8.88.9.07Z" transform="translate(-8.53 -13.71)" fill="#fff"/>
        <path d="M86.3,30.65c-1,3.27-3.4,3.81-5.35,3.23-2.43-.74-3.49-3-2.67-5.65a4.84,4.84,0,0,1,2.18-3A4.12,4.12,0,0,1,83.63,25C86.07,25.74,87.13,27.91,86.3,30.65Zm-.86-.26c.8-2.66-.53-4.06-2.07-4.52s-3.46.06-4.23,2.62.53,4.05,2.08,4.52C83.19,33.6,84.75,32.67,85.44,30.39Z" transform="translate(-8.53 -13.71)" fill="#fff"/>
        <path d="M94,34.82l3.08,1.9-2.31,3.74-.65-.4.4-.91a4,4,0,0,1-3.13-.57c-2.17-1.33-2.61-3.74-1.14-6.14a4.84,4.84,0,0,1,2.87-2.3,4.1,4.1,0,0,1,3.13.55,3.79,3.79,0,0,1,1.79,4.47l-.81-.5a3,3,0,0,0-1.45-3.2c-1.38-.85-3.35-.84-4.76,1.45s-.42,4.12.85,4.9a2.65,2.65,0,0,0,4-.83l-2.31-1.42Z" transform="translate(-8.53 -13.71)" fill="#fff"/>
        <path d="M103.76,45.76c-1,1-2.3,1-3.75-.46l-2.44-2.49,6.35-6.23,2.36,2.4a2.48,2.48,0,0,1,0,3.56,1.87,1.87,0,0,1-2.08.45A2,2,0,0,1,103.76,45.76Zm-.58-.68a1.76,1.76,0,0,0-.13-2.57l-1.91-1.94-2.32,2.27,1.93,2C101.54,45.61,102.39,45.86,103.18,45.08Zm.75-7.25L101.76,40l1.54,1.56c.86.88,1.59,1.1,2.4.3.64-.62.66-1.51-.23-2.41Z" transform="translate(-8.53 -13.71)" fill="#fff"/>
        <path d="M112.27,54.88c-2.94,1.74-5.09.5-6.12-1.25-1.3-2.19-.58-4.53,1.84-6a4.77,4.77,0,0,1,3.61-.7,4.09,4.09,0,0,1,2.52,1.94C115.42,51.1,114.73,53.42,112.27,54.88Zm-.46-.78c2.39-1.42,2.35-3.35,1.53-4.73s-2.59-2.29-4.89-.93-2.35,3.35-1.53,4.73C108,54.94,109.76,55.32,111.81,54.1Z" transform="translate(-8.53 -13.71)" fill="#fff"/>
        <path d="M116.25,67c-3.29.92-5-.84-5.59-2.79-.69-2.45.62-4.53,3.33-5.29a4.8,4.8,0,0,1,3.67.26,4.06,4.06,0,0,1,1.92,2.53C120.27,64.12,119,66.18,116.25,67Zm-.24-.88c2.67-.75,3.14-2.62,2.7-4.17s-1.9-2.88-4.48-2.16-3.14,2.62-2.7,4.18C112.09,65.91,113.71,66.73,116,66.08Z" transform="translate(-8.53 -13.71)" fill="#fff"/>
        <path d="M121.42,76.8l0,1.22-3.72-3.22-5.17,3.88,0-1.1L117,74.2l-2-1.73-2.65.07,0-.9,8.9-.24,0,.9-4.93.13Z" transform="translate(-8.53 -13.71)" fill="#fff"/>
      </g>
      <g>
        <g>
          <path d="M92.86,71.24l2.39-1.56,3.18,1.58-.82,12.66-2,2.63h-1.8l-.33,0C93,78.78,92.6,71.64,92.8,71v.2Z" transform="translate(-8.53 -13.71)" fill="#fff"/>
          <path d="M85.26,119.34l-2.12-13.76L82.4,96.7a21.4,21.4,0,0,0-1.94-1.22l9.6-6.85V75.55L92.8,71h0c-.2.6.16,7.74.72,15.54.46,6.34,1,13.11,1.56,17.14a26.78,26.78,0,0,1-1.87,5.74,27.34,27.34,0,0,1-7.86,10Z" transform="translate(-8.53 -13.71)" fill="#231f20"/>
          <path d="M68.58,94.66H66.5l-1.65-1.72-2.15-.81c-.67.38-3.74,2.1-5.83,3.33L47.3,88.63V75.55l-2.75-4.31c0-1-.24-28.92,24-28.92h.2c23.39,0,24,25.92,24,28.71l-2.74,4.52V88.63l-9.6,6.85c-2.15-1.26-5.37-3.07-5.92-3.38l-2.23.84-1.65,1.72H68.58ZM82.94,77.13l2.62-2.64L73.89,76.27l2.27,3.31ZM61.56,79.58l2.27-3.31L52.16,74.49l2.62,2.64Z" transform="translate(-8.53 -13.71)" fill="#fff"/>
          <polygon points="77.02 60.78 74.41 63.42 67.63 65.87 65.36 62.56 77.02 60.78" fill="#231f20"/>
          <path d="M68.7,125.22a26.85,26.85,0,0,1-16.81-5.88h0l2.25-13.76a96.71,96.71,0,0,1,8.55-5.31l.13.25,1,1.29h9l1.38-1.72a96.22,96.22,0,0,1,8.91,5.5l2.12,13.76.09.12a26.8,26.8,0,0,1-10.77,5.12A27.1,27.1,0,0,1,68.7,125.22Z" transform="translate(-8.53 -13.71)" fill="#231f20"/>
          <path d="M82.4,96.7l.74,8.88a96.22,96.22,0,0,0-8.91-5.5,51.81,51.81,0,0,0-5.59-2.67l.06,0V94.66h2l1.65-1.72,2.23-.84c.55.31,3.77,2.12,5.92,3.38A21.4,21.4,0,0,1,82.4,96.7Z" transform="translate(-8.53 -13.71)" fill="#231f20"/>
          <path d="M74.23,100.08l-1.38,1.72h-9l-1-1.29-.13-.25a56.65,56.65,0,0,1,5.94-2.86A51.81,51.81,0,0,1,74.23,100.08Z" transform="translate(-8.53 -13.71)" fill="#fff"/>
          <path d="M56.87,95.46C59,94.23,62,92.51,62.7,92.13l2.15.81,1.65,1.72h2.08v2.72l.06,0a56.65,56.65,0,0,0-5.94,2.86,96.71,96.71,0,0,0-8.55,5.31l.73-8.88A20.63,20.63,0,0,1,56.87,95.46Z" transform="translate(-8.53 -13.71)" fill="#231f20"/>
          <polygon points="55.3 62.56 53.03 65.87 46.25 63.42 43.63 60.78 55.3 62.56" fill="#231f20"/>
          <path d="M51.89,119.34a27.17,27.17,0,0,1-7.71-9.88,26.63,26.63,0,0,1-1.84-5.6c.45-3.24,1-10.47,1.44-17.31.39-6.14.7-12,.77-14.27a7.55,7.55,0,0,0,0-1l2.75,4.31V88.63l9.57,6.83a20.63,20.63,0,0,0-2,1.24l-.73,8.88L51.9,119.34Z" transform="translate(-8.53 -13.71)" fill="#231f20"/>
          <path d="M44.55,72.28c-.07,2.3-.38,8.13-.77,14.27h-2l-2-2.63L39,71.26l3.18-1.58,2.39,1.56Z" transform="translate(-8.53 -13.71)" fill="#fff"/>
        </g>
        <g>
          <polyline points="48.37 81.77 48.34 81.75 38.77 74.92 38.77 61.84 36.02 57.53" fill="none" stroke="#231f20" stroke-miterlimit="10"/>
          <path d="M42.34,103.86c.45-3.24,1-10.47,1.44-17.31.39-6.14.7-12,.77-14.27a7.55,7.55,0,0,0,0-1h0" transform="translate(-8.53 -13.71)" fill="none" stroke="#fff" stroke-miterlimit="10"/>
          <polyline points="54.3 86.81 55.33 88.1 59.19 88.1 60.47 88.09 64.32 88.09 65.7 86.37" fill="none" stroke="#fff" stroke-miterlimit="10"/>
          <path d="M92.8,71.27V71h0c0-2.79-.63-28.71-24-28.71" transform="translate(-8.53 -13.71)" fill="none" stroke="#231f20" stroke-miterlimit="10"/>
          <path d="M95.08,103.72c-.51-4-1.1-10.8-1.56-17.14C93,78.78,92.6,71.64,92.8,71c0,0,0-.05.06,0" transform="translate(-8.53 -13.71)" fill="none" stroke="#fff" stroke-miterlimit="10"/>
          <line x1="81.53" y1="74.92" x2="71.93" y2="81.77" fill="none" stroke="#231f20" stroke-miterlimit="10"/>
          <line x1="81.53" y1="61.84" x2="81.53" y2="74.92" fill="none" stroke="#231f20" stroke-miterlimit="10"/>
          <line x1="84.27" y1="57.32" x2="81.53" y2="61.84" fill="none" stroke="#231f20" stroke-miterlimit="10"/>
          <path d="M62.83,92.06l-.13.07c-.67.38-3.74,2.1-5.83,3.33a20.63,20.63,0,0,0-2,1.24l-.73,8.88a96.71,96.71,0,0,1,8.55-5.31,56.65,56.65,0,0,1,5.94-2.86l.06,0V94.64" transform="translate(-8.53 -13.71)" fill="none" stroke="#fff" stroke-miterlimit="10"/>
          <path d="M74.46,92.06l.08,0c.55.31,3.77,2.12,5.92,3.38A21.4,21.4,0,0,1,82.4,96.7l.74,8.88a96.22,96.22,0,0,0-8.91-5.5,51.81,51.81,0,0,0-5.59-2.67l-.06,0V94.64" transform="translate(-8.53 -13.71)" fill="none" stroke="#fff" stroke-miterlimit="10"/>
          <polyline points="36.02 59.15 36.02 58.56 36.02 57.52 33.63 55.97 30.45 57.55 31.27 70.21 33.23 72.84 35.24 72.84 35.26 72.84" fill="none" stroke="#231f20" stroke-miterlimit="10"/>
          <polyline points="35.92 60.06 33.63 57.99 31.82 58.49" fill="none" stroke="#231f20" stroke-miterlimit="10"/>
          <polyline points="84.33 59.15 84.33 57.52 86.72 55.97 89.9 57.55 89.08 70.21 87.12 72.84 85.32 72.84" fill="none" stroke="#231f20" stroke-miterlimit="10"/>
          <polyline points="84.43 60.06 86.72 57.99 88.53 58.49" fill="none" stroke="#231f20" stroke-miterlimit="10"/>
          <path d="M44.55,71.27v0c0-1-.24-28.92,24-28.92" transform="translate(-8.53 -13.71)" fill="none" stroke="#231f20" stroke-miterlimit="10"/>
          <polyline points="79.68 55.05 77.17 57.01 63.53 60.5 63.53 73.4" fill="none" stroke="#231f20" stroke-miterlimit="10"/>
          <polyline points="66.53 75.75 66.53 78.2 66.01 78.39 63.78 79.23 62.13 80.94 60.17 80.94 60.05 80.94" fill="none" stroke="#231f20" stroke-miterlimit="10"/>
          <polyline points="53.57 75.75 53.57 78.2 54.16 78.42 56.32 79.23 57.97 80.94 60.05 80.94" fill="none" stroke="#231f20" stroke-miterlimit="10"/>
          <polyline points="41.33 55.23 43.86 57.19 57.6 60.43 57.6 73.58" fill="none" stroke="#231f20" stroke-miterlimit="10"/>
          <path d="M95.08,103.72a26.78,26.78,0,0,1-1.87,5.74,27.34,27.34,0,0,1-7.86,10,26.8,26.8,0,0,1-10.77,5.12,27,27,0,0,1-30.4-15.12,26.63,26.63,0,0,1-1.84-5.6" transform="translate(-8.53 -13.71)" fill="none" stroke="#fff" stroke-miterlimit="10"/>
          <line x1="60.16" y1="111.51" x2="60.24" y2="90.55" fill="none" stroke="#fff" stroke-miterlimit="10"/>
          <line x1="43.37" y1="105.62" x2="45.61" y2="91.87" fill="none" stroke="#fff" stroke-miterlimit="10"/>
          <line x1="76.73" y1="105.63" x2="74.61" y2="91.87" fill="none" stroke="#fff" stroke-miterlimit="10"/>
          <line x1="38.85" y1="101.03" x2="41.33" y2="84.45" fill="none" stroke="#fff" stroke-miterlimit="10"/>
          <line x1="81.03" y1="101.6" x2="79.02" y2="84.45" fill="none" stroke="#fff" stroke-miterlimit="10"/>
          <line x1="35.65" y1="95.75" x2="37.91" y2="80.67" fill="none" stroke="#fff" stroke-miterlimit="10"/>
          <line x1="84.68" y1="95.75" x2="82.4" y2="80.67" fill="none" stroke="#fff" stroke-miterlimit="10"/>
          <line x1="54.94" y1="92.52" x2="54.28" y2="110.87" fill="none" stroke="#fff" stroke-miterlimit="10"/>
          <polyline points="65.32 91.87 66.05 110.87 66.05 111.01" fill="none" stroke="#fff" stroke-miterlimit="10"/>
          <line x1="50.26" y1="92.11" x2="48.37" y2="108.79" fill="none" stroke="#fff" stroke-miterlimit="10"/>
          <line x1="69.38" y1="91.86" x2="71.6" y2="108.79" fill="none" stroke="#fff" stroke-miterlimit="10"/>
          <line x1="57.6" y1="90.15" x2="62.77" y2="90.15" fill="none" stroke="#fff" stroke-miterlimit="10"/>
        </g>
      </g>
    </g>
  </g>
</svg>
