<?xml version="1.0" encoding="iso-8859-1"?>
<!-- Uploaded to: SVG Repo, www.svgrepo.com, Generator: SVG Repo Mixer Tools -->
<svg height="800px" width="800px" version="1.1" id="Layer_1" xmlns="http://www.w3.org/2000/svg" xmlns:xlink="http://www.w3.org/1999/xlink" 
	 viewBox="0 0 393.309 393.309" xml:space="preserve">
<circle style="fill:#ADB5BD;" cx="196.655" cy="196.655" r="196.655"/>
<path style="fill:#F4A064;" d="M276.234,376.566c-14.61,6.465-30.19,11.184-46.416,13.964
	c-11.507-10.99-31.095-36.913-33.228-86.626c-2.069,49.713-21.721,75.572-33.164,86.626c-16.291-2.78-31.935-7.564-46.545-14.093
	c3.297-73.438,38.271-92.057,38.271-92.057l0,0c1.939-0.194,36.137-3.038,41.244,18.036v0.388c0-0.065,0-0.129,0.065-0.259
	c0,0.065,0.065,0.129,0.065,0.259v-0.388c5.236-21.657,41.374-18.036,41.374-18.036c0-0.065-0.065-0.129-0.065-0.259l0.129,0.259
	C238.028,284.444,272.937,303.063,276.234,376.566z"/>
<path style="fill:#414753;" d="M237.899,284.444c0,0-36.073-3.62-41.374,18.036v0.388c0-0.065-0.065-0.129-0.065-0.259
	c-0.065,0.065-0.065,0.129-0.065,0.259v-0.388c-5.236-21.657-41.374-18.036-41.374-18.036c5.172-19.846,9.891-20.299,9.891-20.299
	l0.194-0.065v0.065h63.03C228.202,264.081,232.921,264.598,237.899,284.444z"/>
<path style="fill:#333842;" d="M332.735,64.259c-15.774,0-29.479,8.598-36.784,21.333c-81.972-36.719-163.814-12.8-198.206,0.711
	C90.57,73.18,76.606,64.259,60.574,64.259c-23.402,0-42.343,18.941-42.343,42.343s18.941,42.343,42.343,42.343
	s42.343-18.941,42.343-42.343c0-3.62-0.453-7.176-1.293-10.537c32.776-12.929,111.644-36.202,190.319-0.776
	c-0.97,3.62-1.552,7.37-1.552,11.313c0,23.402,18.941,42.343,42.343,42.343c23.402,0,42.343-18.941,42.343-42.343
	S356.137,64.259,332.735,64.259z"/>
<path style="fill:#393D47;" d="M215.273,105.762c-0.259,2.651-0.711,5.236-1.422,7.822c-0.711-8.145-3.362-15.709-8.145-19.846
	c1.422-0.323,2.715-0.84,3.879-1.681c0.323-0.259,0.646-0.517,0.97-0.84c0.84,1.487,1.616,2.974,2.457,4.461
	c0.776,1.487,1.616,2.909,2.004,4.461C215.531,102.012,215.402,103.952,215.273,105.762z"/>
<g>
	<path style="fill:#F4A064;" d="M167.434,157.608c-16.614-22.562-44.283-6.594-44.283-6.594v-4.396
		c16.873-24.242,5.56-52.493,5.56-52.493l18.166-5.107c0,0-3.168-20.428-14.998-22.562c-11.83-2.133-27.669,13.188-27.669,13.188
		l7.111,14.61c0,0-24.501,35.685-27.669,62.642c-3.168,26.958,16.614,22.238,16.614,22.238
		c33.164,25.859,55.337,18.618,55.337,18.618C182.174,173.964,167.434,157.608,167.434,157.608z"/>
	<path style="fill:#F4A064;" d="M225.875,157.608c16.614-22.562,44.283-6.594,44.283-6.594v-4.396
		c-16.873-24.242-5.56-52.493-5.56-52.493l-18.166-5.107c0,0,3.168-20.428,14.998-22.562c11.83-2.133,27.669,13.188,27.669,13.188
		l-7.111,14.61c0,0,24.501,35.685,27.669,62.642c3.168,26.958-16.614,22.238-16.614,22.238
		c-33.164,25.859-55.337,18.618-55.337,18.618C211.135,173.964,225.875,157.608,225.875,157.608z"/>
	<path style="fill:#F4A064;" d="M220.509,148.622c-2.069,10.408-7.952,24.566-23.855,26.893
		c-15.903-2.327-21.786-16.485-23.855-26.893l6.335-9.826c3.749,4.784,8.727,7.693,14.287,7.693c7.24,0,13.64-5.042,17.325-12.606
		L220.509,148.622z"/>
</g>
<path style="fill:#E03131;" d="M237.77,197.754c-26.634-23.79-11.83-40.081-11.83-40.081l-5.301-8.857
	c-2.133,10.343-7.952,24.501-23.855,26.828c-15.903-2.327-21.786-16.485-23.855-26.828l-5.301,8.857c0,0,14.739,16.291-11.83,40.081
	c-1.552,4.396,1.552,22.562,7.887,34.974c6.335,12.347,1.552,31.354,1.552,31.354h31.418h31.612c0,0-4.719-18.941,1.551-31.354
	C236.154,220.315,239.321,202.15,237.77,197.754z"/>
<path style="fill:#FBBE87;" d="M214.109,118.691c0,15.321-9.244,27.733-20.687,27.733s-20.687-12.412-20.687-27.733
	s9.503-25.406,20.687-27.733C208.032,87.984,214.109,103.37,214.109,118.691z"/>
<path style="fill:#414753;" d="M172.477,114.295c-3.426-5.236-6.982-10.99-6.271-17.002c0.711-6.012,5.689-11.055,11.636-13.576
	c5.947-2.521,12.735-2.909,19.265-2.521c2.909,0.129,5.883,0.388,8.727,0c2.844-0.388,5.818-1.552,7.499-3.685
	c0.517,5.236,0.711,11.442-3.814,14.675c-3.168,2.327-7.628,2.133-11.572,2.78c-10.925,1.487-20.622,8.986-24.178,18.618"/>
<g>
	<polygon style="fill:#333842;" points="142.998,72.727 136.081,74.667 139.572,84.234 147.2,82.424 	"/>
	<polygon style="fill:#333842;" points="252.315,71.499 259.232,73.374 255.741,82.941 248.113,81.196 	"/>
</g>
</svg>